<svg width="32" height="32" viewBox="0 0 32 32" fill="none" xmlns="http://www.w3.org/2000/svg">
  <defs>
    <linearGradient id="blazeGradient" x1="0%" y1="0%" x2="100%" y2="100%">
      <stop offset="0%" style="stop-color:#FF6B35;stop-opacity:1" />
      <stop offset="50%" style="stop-color:#F7931E;stop-opacity:1" />
      <stop offset="100%" style="stop-color:#FFD23F;stop-opacity:1" />
    </linearGradient>
    <linearGradient id="photoGradient" x1="0%" y1="0%" x2="100%" y2="100%">
      <stop offset="0%" style="stop-color:#667EEA;stop-opacity:1" />
      <stop offset="100%" style="stop-color:#764BA2;stop-opacity:1" />
    </linearGradient>
  </defs>
  
  <!-- Simplified photo frames for favicon -->
  <g transform="translate(2, 4)">
    <!-- Back frame -->
    <rect x="1" y="1" width="12" height="9" rx="1" fill="url(#photoGradient)" opacity="0.6" transform="rotate(8 7 5.5)"/>
    <!-- Front frame -->
    <rect x="3" y="3" width="12" height="9" rx="1" fill="url(#photoGradient)"/>
    <rect x="4" y="4" width="10" height="7" rx="0.5" fill="white"/>
    <!-- Simple mountain -->
    <path d="M4 10 Q6 8.5 8 9 Q10 9.5 12 8 Q14 6.5 14 11 H4 Z" fill="#9CA3AF"/>
  </g>
  
  <!-- Simplified flame -->
  <g transform="translate(18, 8)">
    <path d="M0 12 Q-2 8 0 6 Q2 4 4 5 Q6 6 5 8 Q4 10 2 11 Q1 12 0 12 Z" fill="url(#blazeGradient)"/>
    <path d="M1 9 Q1 7 2 6 Q3 5 4 6 Q4 7 3 8 Q2 9 1 9 Z" fill="#FFE66D" opacity="0.8"/>
  </g>
  
  <!-- Small sparks -->
  <circle cx="24" cy="6" r="0.5" fill="#FFD23F"/>
  <circle cx="20" cy="12" r="0.3" fill="#F7931E"/>
</svg>