<svg width="512" height="512" viewBox="0 0 512 512" fill="none" xmlns="http://www.w3.org/2000/svg">
  <defs>
    <!-- Modern gallery gradients -->
    <linearGradient id="primaryGradient" x1="0%" y1="0%" x2="100%" y2="100%">
      <stop offset="0%" style="stop-color:#3B82F6;stop-opacity:1" />
      <stop offset="100%" style="stop-color:#1D4ED8;stop-opacity:1" />
    </linearGradient>
    <linearGradient id="accentGradient" x1="0%" y1="0%" x2="100%" y2="100%">
      <stop offset="0%" style="stop-color:#F59E0B;stop-opacity:1" />
      <stop offset="100%" style="stop-color:#D97706;stop-opacity:1" />
    </linearGradient>
    <linearGradient id="greenGradient" x1="0%" y1="0%" x2="100%" y2="100%">
      <stop offset="0%" style="stop-color:#10B981;stop-opacity:1" />
      <stop offset="100%" style="stop-color:#059669;stop-opacity:1" />
    </linearGradient>
    <linearGradient id="pinkGradient" x1="0%" y1="0%" x2="100%" y2="100%">
      <stop offset="0%" style="stop-color:#F472B6;stop-opacity:1" />
      <stop offset="100%" style="stop-color:#EC4899;stop-opacity:1" />
    </linearGradient>
    <linearGradient id="purpleGradient" x1="0%" y1="0%" x2="100%" y2="100%">
      <stop offset="0%" style="stop-color:#8B5CF6;stop-opacity:1" />
      <stop offset="100%" style="stop-color:#7C3AED;stop-opacity:1" />
    </linearGradient>
    <!-- Subtle shadow effect -->
    <filter id="shadow" x="-20%" y="-20%" width="140%" height="140%">
      <feDropShadow dx="0" dy="4" stdDeviation="8" flood-opacity="0.15"/>
    </filter>
  </defs>
  
  <!-- Light background -->
  <rect width="512" height="512" rx="80" fill="#F8FAFC"/>
  
  <!-- Photo Gallery Grid - 3x3 layout -->
  <g transform="translate(256, 256)">
    
    <!-- Top row -->
    <g filter="url(#shadow)">
      <rect x="-150" y="-120" width="80" height="60" rx="8" fill="url(#primaryGradient)"/>
      <rect x="-145" y="-115" width="70" height="50" rx="6" fill="white" opacity="0.95"/>
      <rect x="-140" y="-110" width="60" height="40" rx="4" fill="url(#greenGradient)" opacity="0.3"/>
      <path d="M-140 -70 Q-120 -85 -100 -80 Q-85 -75 -80 -80 V-70 H-140 Z" fill="#94A3B8" opacity="0.5"/>
      <circle cx="-125" cy="-95" r="6" fill="#FCD34D"/>
    </g>
    
    <g filter="url(#shadow)">
      <rect x="-40" y="-120" width="80" height="60" rx="8" fill="url(#accentGradient)"/>
      <rect x="-35" y="-115" width="70" height="50" rx="6" fill="white" opacity="0.95"/>
      <circle cx="-15" cy="-95" r="12" fill="url(#primaryGradient)" opacity="0.4"/>
      <circle cx="-5" cy="-85" r="8" fill="url(#pinkGradient)" opacity="0.6"/>
      <circle cx="15" cy="-100" r="6" fill="#FFF" opacity="0.8"/>
    </g>
    
    <g filter="url(#shadow)">
      <rect x="70" y="-120" width="80" height="60" rx="8" fill="url(#greenGradient)"/>
      <rect x="75" y="-115" width="70" height="50" rx="6" fill="white" opacity="0.95"/>
      <rect x="80" y="-110" width="60" height="35" rx="3" fill="url(#purpleGradient)" opacity="0.4"/>
      <path d="M80 -75 Q100 -85 120 -80 Q135 -75 145 -78 V-70 H80 Z" fill="#E5E7EB" opacity="0.6"/>
    </g>
    
    <!-- Middle row -->
    <g filter="url(#shadow)">
      <rect x="-150" y="-30" width="80" height="60" rx="8" fill="url(#pinkGradient)"/>
      <rect x="-145" y="-25" width="70" height="50" rx="6" fill="white" opacity="0.95"/>
      <rect x="-140" y="-20" width="30" height="25" rx="2" fill="url(#accentGradient)" opacity="0.5"/>
      <rect x="-105" y="-15" width="25" height="20" rx="2" fill="url(#primaryGradient)" opacity="0.4"/>
      <circle cx="-120" cy="-8" r="4" fill="#FFF"/>
    </g>
    
    <g filter="url(#shadow)">
      <rect x="-40" y="-30" width="80" height="60" rx="8" fill="url(#primaryGradient)"/>
      <rect x="-35" y="-25" width="70" height="50" rx="6" fill="white" opacity="0.95"/>
      <path d="M-35 20 Q-15 5 5 10 Q25 15 35 10 V25 H-35 Z" fill="#9CA3AF" opacity="0.6"/>
      <circle cx="10" cy="-10" r="8" fill="#FCD34D"/>
      <circle cx="-10" cy="-5" r="5" fill="#FFF" opacity="0.7"/>
    </g>
    
    <g filter="url(#shadow)">
      <rect x="70" y="-30" width="80" height="60" rx="8" fill="url(#purpleGradient)"/>
      <rect x="75" y="-25" width="70" height="50" rx="6" fill="white" opacity="0.95"/>
      <rect x="80" y="-20" width="60" height="20" rx="3" fill="url(#greenGradient)" opacity="0.3"/>
      <circle cx="110" cy="10" r="10" fill="url(#accentGradient)" opacity="0.5"/>
    </g>
    
    <!-- Bottom row -->
    <g filter="url(#shadow)">
      <rect x="-150" y="60" width="80" height="60" rx="8" fill="url(#accentGradient)"/>
      <rect x="-145" y="65" width="70" height="50" rx="6" fill="white" opacity="0.95"/>
      <circle cx="-125" cy="85" r="8" fill="url(#primaryGradient)" opacity="0.6"/>
      <circle cx="-105" cy="95" r="6" fill="url(#pinkGradient)" opacity="0.7"/>
      <circle cx="-115" cy="105" r="4" fill="#FFF"/>
    </g>
    
    <g filter="url(#shadow)">
      <rect x="-40" y="60" width="80" height="60" rx="8" fill="url(#greenGradient)"/>
      <rect x="-35" y="65" width="70" height="50" rx="6" fill="white" opacity="0.95"/>
      <rect x="-30" y="70" width="60" height="30" rx="4" fill="url(#primaryGradient)" opacity="0.3"/>
      <path d="M-30 100 Q-10 85 10 90 Q30 95 35 90 V115 H-30 Z" fill="#CBD5E1" opacity="0.5"/>
    </g>
    
    <g filter="url(#shadow)">
      <rect x="70" y="60" width="80" height="60" rx="8" fill="url(#primaryGradient)"/>
      <rect x="75" y="65" width="70" height="50" rx="6" fill="white" opacity="0.95"/>
      <path d="M75 115 Q95 100 115 105 Q135 110 145 105 V115 H75 Z" fill="#94A3B8" opacity="0.4"/>
      <circle cx="125" cy="85" r="6" fill="#FCD34D"/>
      <circle cx="110" cy="95" r="4" fill="url(#pinkGradient)" opacity="0.6"/>
    </g>
  </g>
  
  <!-- Clean, modern typography -->
  <g transform="translate(256, 420)" text-anchor="middle">
    <text x="0" y="0" 
          font-family="system-ui, -apple-system, 'Segoe UI', sans-serif" 
          font-size="36" 
          font-weight="800" 
          fill="url(#primaryGradient)" 
          letter-spacing="2px">BLAZE</text>
  </g>
</svg>